<!--
 SPDX-License-Identifier: Apache-2.0
 This conversation was marked as resolved by abbyhu2000

 The OpenSearch Contributors require contributions made to
 this file be licensed under the Apache-2.0 license or a
 compatible open source license.

 Licensed to Elasticsearch B.V. under one or more contributor
 license agreements. See the NOTICE file distributed with
 this work for additional information regarding copyright
 ownership. Elasticsearch B.V. licenses this file to you under
 the Apache License, Version 2.0 (the "License"); you may
 not use this file except in compliance with the License.
 You may obtain a copy of the License at

    http://www.apache.org/licenses/LICENSE-2.0

 Unless required by applicable law or agreed to in writing,
 software distributed under the License is distributed on an
 "AS IS" BASIS, WITHOUT WARRANTIES OR CONDITIONS OF ANY
 KIND, either express or implied.  See the License for the
 specific language governing permissions and limitations
 under the License.

 Modifications Copyright OpenSearch Contributors. See
 GitHub history for details.
 -->

<svg xmlns="http://www.w3.org/2000/svg" viewBox="0 0 64 64">
   <path d="M35.02,22.94v-3.02c0-5.01,4.06-9.06,9.06-9.06h15.11v-6.05h-15.11c-8.34,0-15.11,6.76-15.11,15.11v3.02s6.05,0,6.05,0Z" style="fill: #00796b; fill-rule: evenodd; stroke-width: 0px;"/>
   <path d="M53.14,4.81v15.11c0,5.01-4.06,9.06-9.06,9.06h-15.11v6.05h15.11c8.34,0,15.11-6.76,15.11-15.11V4.81s-6.05,0-6.05,0Z" style="fill: #00796b; fill-rule: evenodd; stroke-width: 0px;"/>
   <path d="M28.98,41.06v3.02c0,5.01-4.06,9.06-9.06,9.06H4.81v6.05h15.11c8.34,0,15.11-6.76,15.11-15.11v-3.02s-6.05,0-6.05,0Z" style="fill: #00796b; fill-rule: evenodd; stroke-width: 0px;"/>
   <path d="M10.86,59.19v-15.11c0-5.01,4.06-9.06,9.06-9.06h15.11v-6.05h-15.11c-8.34,0-15.11,6.76-15.11,15.11v15.11h6.05Z" style="fill: #00796b; fill-rule: evenodd; stroke-width: 0px;"/>
</svg>
