<svg xmlns="http://www.w3.org/2000/svg" viewBox="0 0 64 64" height="64" width="64">
    <path d="M33.78,26.67v-1.78c0-2.95,2.39-5.33,5.33-5.33h8.89v-3.56h-8.89c-4.91,0-8.89,3.98-8.89,8.89v1.78h3.56Z" style="fill: white; fill-rule: evenodd; stroke-width: 0px;"/>
    <path d="M44.44,16v8.89c0,2.95-2.39,5.33-5.33,5.33h-8.89v3.56h8.89c4.91,0,8.89-3.98,8.89-8.89v-8.89h-3.56Z" style="fill: white; fill-rule: evenodd; stroke-width: 0px;"/>
    <path d="M30.22,37.33v1.78c0,2.95-2.39,5.33-5.33,5.33h-8.89v3.56h8.89c4.91,0,8.89-3.98,8.89-8.89v-1.78h-3.56Z" style="fill: white; fill-rule: evenodd; stroke-width: 0px;"/>
    <path d="M19.56,48v-8.89c0-2.95,2.39-5.33,5.33-5.33h8.89v-3.56h-8.89c-4.91,0-8.89,3.98-8.89,8.89v8.89h3.56Z" style="fill: white; fill-rule: evenodd; stroke-width: 0px;"/>
</svg>
