<svg xmlns="http://www.w3.org/2000/svg" fill="none" viewBox="0 0 90 90">
    <path fill="#00796b" d="M75.737 37.5a2.263 2.263 0 0 0-2.262 2.263c0 18.618-15.094 33.712-33.712 33.712a2.263 2.263 0 1 0 0 4.525C60.88 78 78 60.88 78 39.763a2.263 2.263 0 0 0-2.263-2.263Z" />
	<path d="M53.8,42.4v-7.5c0-6.9-5.5-12.4-12.4-12.4h-2.5v5h2.5c4.1,0,7.4,3.3,7.4,7.5v2.5H34l0,0v-5v-9.9h-5v9.9v5l0,0v5v2.4c0,6.9,5.5,12.4,12.4,12.4h12.4v-5H41.4c-4.1,0-7.4-3.3-7.4-7.5v-2.5L53.8,42.4L53.8,42.4z" fill="#00796b" fillRule="evenodd" strokeWidth="0" />
</svg>
