<svg xmlns="http://www.w3.org/2000/svg" fill="none" viewBox="0 0 90 90">
	<g>
		<path fill="#fff" d="M75.737 37.5a2.263 2.263 0 0 0-2.262 2.263c0 18.618-15.094 33.712-33.712 33.712a2.263 2.263 0 1 0 0 4.525C60.88 78 78 60.88 78 39.763a2.263 2.263 0 0 0-2.263-2.263Z" />
		<animateTransform attributeName="transform" dur="1.5s" from="0 40 40" keyTimes="0; .3; .7; 1" repeatCount="indefinite" to="359.9 40 40" type="rotate" values="0 40 40; 15 40 40; 340 40 40; 359.9 40 40" />
	</g>
	<g>
		<path d="M43.83,34.33v-1.67c0-2.77,2.24-5,5-5h8.33v-3.34h-8.33c-4.6,0-8.33,3.73-8.33,8.33v1.67s3.34,0,3.34,0Z" style="fill: #fff; fill-rule: evenodd; stroke-width: 0px;"/>
		<path d="M53.83,24.33v8.33c0,2.77-2.24,5-5,5h-8.33v3.34h8.33c4.6,0,8.33-3.73,8.33-8.33v-8.33s-3.34,0-3.34,0Z" style="fill: #fff; fill-rule: evenodd; stroke-width: 0px;"/>
		<path d="M40.5,44.33v1.67c0,2.77-2.24,5-5,5h-8.33v3.34h8.33c4.6,0,8.33-3.73,8.33-8.33v-1.67s-3.34,0-3.34,0Z" style="fill: #fff; fill-rule: evenodd; stroke-width: 0px;"/>
		<path d="M30.5,54.33v-8.33c0-2.77,2.24-5,5-5h8.33v-3.34h-8.33c-4.6,0-8.33,3.73-8.33,8.33v8.33h3.34Z" style="fill: #fff; fill-rule: evenodd; stroke-width: 0px;"/>
	  </g>
</svg>
